<?xml version="1.0" encoding="UTF-8" standalone="no"?>
<svg
   id="emoji"
   viewBox="0 0 64.325424 21.476103"
   version="1.1"
   sodipodi:docname="1F68C.svg"
   width="64.325424"
   height="21.476103"
   inkscape:version="1.2 (dc2aedaf03, 2022-05-15)"
   xmlns:inkscape="http://www.inkscape.org/namespaces/inkscape"
   xmlns:sodipodi="http://sodipodi.sourceforge.net/DTD/sodipodi-0.dtd"
   xmlns="http://www.w3.org/2000/svg"
   xmlns:svg="http://www.w3.org/2000/svg">
  <defs
     id="defs95" />
  <sodipodi:namedview
     id="namedview93"
     pagecolor="#ffffff"
     bordercolor="#666666"
     borderopacity="1.0"
     inkscape:showpageshadow="2"
     inkscape:pageopacity="0.0"
     inkscape:pagecheckerboard="0"
     inkscape:deskcolor="#d1d1d1"
     showgrid="false"
     inkscape:zoom="25.305556"
     inkscape:cx="31.692645"
     inkscape:cy="0.19758507"
     inkscape:window-width="3840"
     inkscape:window-height="2054"
     inkscape:window-x="-11"
     inkscape:window-y="-11"
     inkscape:window-maximized="1"
     inkscape:current-layer="emoji" />
  <g
     id="color"
     transform="matrix(-1,0,0,1,68.625123,-35.815595)">
    <path
       fill="#ea5a47"
       d="m 17.9247,53.9753 -6.625,-1.017 c 0,0 -1.0625,0 -1.0625,-1.25 0,-1.25 -0.0625,-3.5625 -0.0625,-3.5625 0,0 0.6832,-9.4798 2.625,-10.625 1.625,-0.9583 46.544,-0.7036 53.1365,-0.5781 0.4728,0.009 0.8668,0.3478 0.9496,0.8133 0.2375,1.3354 0.6809,4.0966 0.7264,6.3273 0.0625,3.0625 -0.125,8 -0.125,8 l -4.7646,1.7952"
       id="path53" />
    <path
       fill="#3f3f3f"
       d="m 13.1331,38.0833 c 0,0 -2.3125,3.1667 -2.125,9.0417 0,0 3.9166,1.4583 9.9791,-4.3125 l 42.9375,1.3125 c 0,0 2.2292,-1.2292 2.3334,-6.2917 0,0 -45.875,-2.1666 -53.125,0.25 z"
       id="path55" />
    <line
       x1="50.3414"
       x2="30.1747"
       y1="53.0606"
       y2="53.0065"
       fill="none"
       id="line57" />
    <circle
       cx="56.480301"
       cy="53.291698"
       r="3"
       fill="#d0cfce"
       id="circle59" />
    <circle
       cx="23.980301"
       cy="53.291698"
       r="3"
       fill="#d0cfce"
       id="circle61" />
    <rect
       x="40.487202"
       y="40.317699"
       width="5.0625"
       height="12.6667"
       fill="#3f3f3f"
       id="rect63" />
    <path
       fill="#fcea2b"
       d="m 11.1591,50.6562 h 2.5783 l 1.0723,-2.3125 h -2.8795 c -0.4259,0 -0.7711,0.3992 -0.7711,0.8916 0,0 0,1.4209 0,1.4209 z"
       id="path65" />
  </g>
  <g
     id="hair"
     transform="matrix(-1,0,0,1,68.625123,-35.815595)" />
  <g
     id="skin"
     transform="matrix(-1,0,0,1,68.625123,-35.815595)" />
  <g
     id="skin-shadow"
     transform="matrix(-1,0,0,1,68.625123,-35.815595)" />
  <g
     id="line"
     transform="matrix(-1,0,0,1,68.625123,-35.815595)">
    <path
       fill="none"
       stroke="#000000"
       stroke-linecap="round"
       stroke-linejoin="round"
       stroke-miterlimit="10"
       stroke-width="2"
       d="m 17.9247,52.9753 -6.625,-0.017 c 0,0 -1.0625,0 -1.0625,-1.25 0,-1.25 -0.0625,-3.5625 -0.0625,-3.5625 0,0 0.6832,-9.4798 2.625,-10.625 1.625,-0.9583 46.544,-0.7036 53.1365,-0.5781 0.4728,0.009 0.8668,0.3478 0.9496,0.8133 0.2375,1.3354 0.6809,4.0966 0.7264,6.3273 0.0625,3.0625 -0.125,8 -0.125,8 l -4.7646,0.7952"
       id="path71" />
    <line
       x1="50.3414"
       x2="30.1747"
       y1="53.0606"
       y2="53.0065"
       fill="none"
       stroke="#000000"
       stroke-linecap="round"
       stroke-linejoin="round"
       stroke-miterlimit="10"
       stroke-width="2"
       id="line73" />
    <polyline
       fill="none"
       stroke="#000000"
       stroke-linecap="round"
       stroke-linejoin="round"
       stroke-miterlimit="10"
       stroke-width="2"
       points="11.2997,40.5 6.7372,40.8125 5.2997,44.125"
       id="polyline75" />
    <circle
       cx="56.480301"
       cy="53.291698"
       r="3"
       fill="none"
       stroke="#000000"
       stroke-linecap="round"
       stroke-linejoin="round"
       stroke-miterlimit="10"
       stroke-width="2"
       id="circle77" />
    <circle
       cx="23.980301"
       cy="53.291698"
       r="3"
       fill="none"
       stroke="#000000"
       stroke-linecap="round"
       stroke-linejoin="round"
       stroke-miterlimit="10"
       stroke-width="2"
       id="circle79" />
    <path
       fill="none"
       stroke="#000000"
       stroke-linecap="round"
       stroke-linejoin="round"
       stroke-miterlimit="10"
       stroke-width="2"
       d="m 45.5493,43.0283 18.1254,0.1592 c 0,0 0.0142,-0.0017 0.0403,-0.0069"
       id="path81" />
    <path
       fill="none"
       stroke="#000000"
       stroke-linecap="round"
       stroke-linejoin="round"
       stroke-miterlimit="10"
       stroke-width="2"
       d="m 13.2782,46.3109 c 0,0 4.0241,-0.9494 7.709,-3.4984 l 19.5,0.1713"
       id="path83" />
    <path
       fill="none"
       stroke="#000000"
       stroke-linecap="round"
       stroke-linejoin="round"
       stroke-miterlimit="10"
       stroke-width="2"
       d="m 17.9247,52.9753 -6.625,-0.017 c 0,0 -1.0625,0 -1.0625,-1.25 0,-1.25 -0.0625,-3.5625 -0.0625,-3.5625 0,0 0.6832,-9.4798 2.625,-10.625 1.625,-0.9583 46.544,-0.7036 53.1365,-0.5781 0.4728,0.009 0.8668,0.3478 0.9496,0.8133 0.2375,1.3354 0.6809,4.0966 0.7264,6.3273 0.0625,3.0625 -0.125,8 -0.125,8"
       id="path85" />
    <rect
       x="40.487202"
       y="40.317699"
       width="5.0625"
       height="12.6667"
       fill="none"
       stroke="#000000"
       stroke-linecap="round"
       stroke-linejoin="round"
       stroke-miterlimit="10"
       stroke-width="2"
       id="rect87" />
    <polyline
       fill="none"
       stroke="#000000"
       stroke-linecap="round"
       stroke-linejoin="round"
       stroke-miterlimit="10"
       stroke-width="2"
       points="11.1591,50.6562 13.7374,50.6562 14.8097,49.2948"
       id="polyline89" />
  </g>
</svg>
