<?xml version="1.0" encoding="UTF-8" standalone="no"?>
<!-- Generator: Adobe Illustrator 19.2.1, SVG Export Plug-In . SVG Version: 6.00 Build 0)  -->

<svg
   version="1.1"
   id="layer"
   x="0px"
   y="0px"
   viewBox="0 0 600.04187 170.16557"
   xml:space="preserve"
   sodipodi:docname="mariadb_foundation.svg"
   width="600.04187"
   height="170.16557"
   inkscape:version="1.2.1 (9c6d41e410, 2022-07-14)"
   xmlns:inkscape="http://www.inkscape.org/namespaces/inkscape"
   xmlns:sodipodi="http://sodipodi.sourceforge.net/DTD/sodipodi-0.dtd"
   xmlns="http://www.w3.org/2000/svg"
   xmlns:svg="http://www.w3.org/2000/svg"><defs
   id="defs42" /><sodipodi:namedview
   id="namedview40"
   pagecolor="#ffffff"
   bordercolor="#666666"
   borderopacity="1.0"
   inkscape:showpageshadow="2"
   inkscape:pageopacity="0.0"
   inkscape:pagecheckerboard="0"
   inkscape:deskcolor="#d1d1d1"
   showgrid="false"
   inkscape:zoom="1.5751534"
   inkscape:cx="305.36709"
   inkscape:cy="89.515093"
   inkscape:window-width="2880"
   inkscape:window-height="1551"
   inkscape:window-x="0"
   inkscape:window-y="0"
   inkscape:window-maximized="1"
   inkscape:current-layer="layer" />
<style
   type="text/css"
   id="style2">
	.st0{fill:#1F305F;}
	.st1{fill:#C0765A;}
	.st2{fill:#A0624D;}
</style>
<g
   id="g4445-4_3_"
   transform="translate(-1634.4,-250.09658)">
	<g
   id="g4447-8_3_">
		<path
   id="path4449-4_3_"
   class="st0"
   d="m 1885.1,250.1 c -3.9,0.1 -2.8,1.9 -11.3,4 -8.6,2.1 -19,0.8 -28.3,4.7 -24.2,10.1 -28.1,49.4 -57,64.5 -18.9,10.7 -38.2,13.1 -55.4,18.5 -13.8,5.5 -22.4,9.2 -32.6,18 -7.9,6.8 -9.8,13.4 -18,21.9 -8.3,11.3 -40,1.3 -48.1,15.5 4.3,2.8 6.8,3.5 14.3,2.6 -1.6,3 -11.5,6.8 -9.7,11.2 0,0 24,4.4 44.2,-7.8 9.4,-3.8 18.3,-11.9 32.9,-13.9 19,-2.5 40.3,4 63.3,5.8 -4.7,9.4 -9.6,14.9 -14.9,22.6 -1.6,1.7 1.4,3.3 6.9,2.2 10,-2.5 17.2,-5.2 24.4,-10.1 9.4,-6.5 13.4,-12.4 21.3,-21.8 6.9,11 31.1,13.4 36.1,3.9 -9.3,-3.9 -11.2,-24.3 -8.1,-33.1 3.7,-8.4 6.4,-20.2 9.5,-31.3 2.7,-9.9 4.4,-25.1 7.7,-32.8 3.9,-9.6 11.5,-12.7 17.1,-17.8 5.7,-5.1 11.3,-9.4 11.2,-21.1 0.1,-3.7 -1.9,-5.8 -5.5,-5.7 z" />
		<path
   id="path4451-9_3_"
   class="st1"
   d="m 1641.7,409 c 14.9,0.4 18.9,0.1 30.6,-5 10,-4.3 23.3,-16 35.1,-19.8 17.3,-5.6 35.9,-4.7 54.3,-2.6 6.2,0.7 12.4,1.8 16.8,1.3 6.9,-4.2 7.2,-15.7 11.5,-16.7 -1.2,22.2 -10.7,36.5 -20.2,49.4 20.1,-3.5 33.5,-16.1 41.7,-31.6 2.5,-4.7 6.6,-12.4 8.4,-17.7 1.5,3.5 -1.9,5.7 -0.3,9.6 12.9,-10.7 19,-22.8 24.3,-40.6 6.1,-20.6 12.3,-38.3 16.2,-44.4 3.8,-6 9.8,-9.6 15.2,-13.4 6.2,-4.3 11.7,-8.8 12.6,-17.1 -6.5,-0.6 -8,-2.1 -9,-5.4 -3.3,1.8 -6.3,2.2 -9.6,2.3 -2.9,0.1 -6.2,0 -10.1,0.4 -32.6,3.3 -34.1,35.2 -57.8,58.6 -1.5,1.5 -4.1,3.7 -5.9,5 -7.3,5.5 -15.2,8.5 -23.4,11.6 -13.4,5.1 -26.1,6.6 -38.6,11 -9.2,3.2 -17.8,6.9 -25.3,12.1 -1.9,1.3 -4.5,3.6 -6.1,4.9 -4.4,3.6 -7.3,7.7 -10.2,11.8 -2.9,4.3 -5.7,8.7 -10,12.9 -6.9,6.8 -32.8,2 -41.9,8.3 -1,0.7 -1.8,1.5 -2.4,2.6 5,2.3 8.3,0.9 14,1.5 0.8,5.2 -11.8,8.5 -9.9,11 z" />
		<path
   id="path4457-3_3_"
   class="st0"
   d="m 1848.4,271 c 4.6,4 14.3,0.8 12.6,-7.2 -7.2,-0.6 -11.4,1.9 -12.6,7.2 z" />
		<path
   id="path4459-4_3_"
   class="st0"
   d="m 1880.6,261.7 c -1.2,2.6 -3.6,5.9 -3.6,12.4 0,1.1 -0.9,1.9 -0.9,0.2 0.1,-6.4 1.8,-9.2 3.6,-12.8 0.8,-1.5 1.3,-0.9 0.9,0.2 z" />
		<path
   id="path4461-6_3_"
   class="st0"
   d="m 1879.3,260.7 c -1.5,2.4 -4.9,6.9 -5.5,13.5 -0.1,1.1 -1,1.8 -0.9,0.1 0.6,-6.4 3.4,-10.4 5.5,-13.8 1,-1.5 1.5,-0.8 0.9,0.2 z" />
		<path
   id="path4463-0_3_"
   class="st0"
   d="m 1878.2,259.4 c -1.7,2.3 -7,7.7 -8.1,14.2 -0.2,1.1 -1.2,1.7 -0.9,0 1.2,-6.3 5.8,-11.3 8.2,-14.5 1,-1.3 1.4,-0.6 0.8,0.3 z" />
		<path
   id="path4465-8_3_"
   class="st0"
   d="m 1877.2,258 c -2,2.1 -8.4,8.9 -10.4,15.2 -0.4,1.1 -1.4,1.5 -0.9,-0.1 2,-6.1 7.6,-12.6 10.5,-15.5 1.3,-1.2 1.6,-0.5 0.8,0.4 z" />
	</g>
</g>
<g
   id="g4483-2_1_"
   transform="translate(-104.36829,-155.91873)">
	<g
   id="g4485-8_1_"
   transform="translate(1.2626907)">
		<path
   id="path4487-2_1_"
   class="st0"
   d="m 597,208.7 v 45 h -5.7 V 246 c -5.1,6.2 -11,9.2 -17.6,9.2 -6.6,0 -12.2,-2.3 -16.8,-7 -4.5,-4.7 -6.8,-10.4 -6.8,-16.9 0,-6.6 2.3,-12.1 6.9,-16.8 4.6,-4.7 10.1,-7 16.4,-7 7.3,0 13.3,3.1 17.9,9.4 v -8.2 h 5.7 m -5.3,22.7 c 0,-5.1 -1.7,-9.5 -5.2,-13 -3.4,-3.6 -7.7,-5.3 -12.7,-5.3 -5,0 -9.2,1.8 -12.6,5.5 -3.4,3.6 -5.2,7.9 -5.2,12.9 0,5 1.8,9.3 5.3,13 3.5,3.6 7.7,5.4 12.5,5.4 4.9,0 9.1,-1.8 12.6,-5.3 3.5,-3.5 5.3,-7.9 5.3,-13.2" />
	</g>
	<g
   id="g4489-8_1_"
   transform="translate(0.50507628)">
		<path
   id="path4491-4_1_"
   class="st0"
   d="m 609.3,253.7 v -60.8 h 12.6 c 8.6,0 15,0.6 19,1.9 4.1,1.2 7.6,3.2 10.5,6 2.9,2.7 5.2,6 6.8,10 1.6,3.9 2.4,8.6 2.4,13.9 0,5.3 -1.2,10.2 -3.7,14.9 -2.4,4.6 -5.8,8.1 -10,10.5 -4.2,2.4 -10.2,3.6 -18.1,3.6 h -19.5 m 5.8,-5.8 h 7 c 7.3,0 12.7,-0.4 15.9,-1.1 3.3,-0.7 6.2,-2.2 8.7,-4.3 2.5,-2.2 4.4,-4.9 5.7,-8 1.3,-3.1 1.9,-6.7 1.9,-10.7 0,-4 -0.8,-7.7 -2.3,-11.1 -1.5,-3.4 -3.6,-6.2 -6.4,-8.4 -2.8,-2.2 -6,-3.7 -9.8,-4.4 -3.7,-0.8 -9.2,-1.2 -16.5,-1.2 H 615 v 49.2" />
	</g>
	<g
   id="g4493-2_1_"
   transform="translate(0.50507628)">
		<path
   id="path4495-3_1_"
   class="st0"
   d="m 533.7,196.1 c 0,-1.3 0.4,-2.4 1.4,-3.4 1,-1 2.1,-1.4 3.4,-1.4 1.4,0 2.5,0.5 3.4,1.4 1,0.9 1.4,2 1.4,3.4 0,1.3 -0.5,2.4 -1.4,3.4 -0.9,0.9 -2,1.4 -3.4,1.4 -1.3,0 -2.4,-0.5 -3.4,-1.4 -0.9,-1 -1.4,-2.1 -1.4,-3.4 m 1.9,12.6 h 5.9 v 45 h -5.9 v -45" />
	</g>
	<g
   id="g4497-1_1_">
		<path
   id="path4499-4_1_"
   class="st0"
   d="m 376,253.7 8.6,-60.8 h 0.9 l 24.7,49.9 24.6,-49.9 h 0.9 l 8.7,60.8 h -6 l -5.9,-43.5 -21.5,43.5 h -1.5 l -21.8,-43.9 -5.9,43.9 H 376" />
	</g>
	<g
   id="g4501-4_1_"
   transform="translate(-0.25253814)">
		<path
   id="path4503-0_1_"
   class="st0"
   d="m 497.5,208.7 v 45 h -5.7 V 246 c -5.1,6.2 -11,9.2 -17.6,9.2 -6.6,0 -12.2,-2.3 -16.8,-7 -4.5,-4.7 -6.8,-10.4 -6.8,-16.9 0,-6.6 2.3,-12.1 6.9,-16.8 4.6,-4.7 10.1,-7 16.4,-7 7.3,0 13.3,3.1 17.9,9.4 v -8.2 h 5.7 m -5.3,22.7 c 0,-5.1 -1.7,-9.5 -5.2,-13 -3.4,-3.6 -7.7,-5.3 -12.7,-5.3 -5,0 -9.2,1.8 -12.6,5.5 -3.4,3.6 -5.2,7.9 -5.2,12.9 0,5 1.7,9.3 5.3,13 3.5,3.6 7.7,5.4 12.5,5.4 4.9,0 9.1,-1.8 12.6,-5.3 3.5,-3.5 5.3,-7.9 5.3,-13.2" />
	</g>
	<g
   id="g4505-7_1_"
   transform="translate(-1.0101526)">
		<path
   id="path4507-8_1_"
   class="st0"
   d="m 508.1,208.7 h 5.9 v 6.5 c 1.6,-2.7 3.1,-4.6 4.6,-5.9 1.5,-1.2 3.2,-1.9 5,-1.9 1.9,0 3.7,0.5 5.6,1.5 l -3.1,4.9 c -0.9,-0.5 -1.7,-0.8 -2.6,-0.8 -1.7,0 -3.4,0.9 -5,2.7 -1.5,1.8 -2.7,4.1 -3.4,7 -0.7,2.8 -1.1,8 -1.1,15.5 v 15.2 h -5.9 v -44.7" />
	</g>
	<g
   id="g4509-8_1_"
   transform="translate(1.0101526)">
		<path
   id="path4511-4_1_"
   class="st0"
   d="m 666.9,192.8 h 12 c 6.4,0 11.2,1.3 14.5,3.9 3.3,2.5 5,6.2 5,11 0,2.7 -0.7,5.1 -2,7.4 -1.3,2.2 -3.2,4 -5.8,5.3 4.2,1.4 7.3,3.4 9.5,6.1 2.2,2.7 3.3,5.9 3.3,9.7 0,5 -1.8,9.2 -5.5,12.5 -3.7,3.3 -8.4,4.9 -14.2,4.9 h -16.8 v -60.8 m 6,6 v 19.5 h 3.5 c 5.3,0 9.3,-0.9 11.9,-2.5 2.6,-1.7 3.9,-4.4 3.9,-8 0,-6 -4.1,-9 -12.2,-9 h -7.1 m 0,25.5 v 23.4 h 7.5 c 4.4,0 7.5,-0.4 9.6,-1.3 2.1,-0.9 3.8,-2.3 5.1,-4.1 1.3,-1.9 1.9,-3.8 1.9,-5.7 0,-1.9 -0.4,-3.6 -1.1,-5.1 -0.7,-1.5 -1.8,-2.8 -3.3,-3.9 -1.4,-1.1 -3.1,-2 -5.2,-2.5 -2,-0.6 -5.7,-0.9 -11.2,-0.9 h -3.3" />
	</g>
</g>
<g
   id="g50"
   transform="translate(-20.0354,-235.91873)">
	<path
   id="path30"
   class="st2"
   d="m 311.9,363.5 h -14 v 14.8 h -6.1 V 343.5 H 314 v 4.9 h -16.1 v 10.4 h 14 z" />
	<path
   id="path32"
   class="st2"
   d="m 324.9,365.1 c 0,-2.5 0.5,-4.8 1.5,-6.9 1,-2 2.4,-3.6 4.2,-4.7 1.8,-1.1 3.9,-1.6 6.3,-1.6 3.5,0 6.3,1.1 8.5,3.4 2.2,2.2 3.4,5.2 3.5,8.9 v 1.4 c 0,2.6 -0.5,4.8 -1.5,6.8 -1,2 -2.4,3.6 -4.2,4.7 -1.8,1.1 -3.9,1.7 -6.3,1.7 -3.6,0 -6.6,-1.2 -8.8,-3.6 -2.2,-2.4 -3.3,-5.7 -3.3,-9.7 z m 5.8,0.5 c 0,2.7 0.5,4.7 1.7,6.3 1.1,1.5 2.6,2.3 4.6,2.3 2,0 3.5,-0.8 4.6,-2.3 1.1,-1.5 1.6,-3.8 1.6,-6.7 0,-2.6 -0.6,-4.7 -1.7,-6.2 -1.1,-1.5 -2.7,-2.3 -4.6,-2.3 -1.9,0 -3.4,0.7 -4.5,2.3 -1.2,1.4 -1.7,3.6 -1.7,6.6 z" />
	<path
   id="path34"
   class="st2"
   d="m 377.8,375.7 c -1.7,2 -4.1,3 -7.3,3 -2.8,0 -4.9,-0.8 -6.4,-2.5 -1.5,-1.7 -2.2,-4 -2.2,-7.1 v -16.8 h 5.8 V 369 c 0,3.3 1.4,4.9 4.1,4.9 2.8,0 4.7,-1 5.7,-3 v -18.6 h 5.8 v 25.9 h -5.5 z" />
	<path
   id="path36"
   class="st2"
   d="m 405.8,352.4 0.2,3 c 1.9,-2.3 4.4,-3.5 7.5,-3.5 5.4,0 8.1,3.1 8.2,9.3 v 17.1 H 416 v -16.8 c 0,-1.6 -0.4,-2.9 -1.1,-3.6 -0.7,-0.7 -1.9,-1.2 -3.5,-1.2 -2.3,0 -4.1,1.1 -5.2,3.2 v 18.4 h -5.8 v -25.9 z" />
	<path
   id="path38"
   class="st2"
   d="m 434.9,365.1 c 0,-4 0.9,-7.2 2.8,-9.6 1.8,-2.4 4.3,-3.6 7.4,-3.6 2.7,0 5,1 6.6,2.9 v -13.3 h 5.8 v 36.7 h -5.3 l -0.3,-2.7 c -1.7,2.1 -4.1,3.2 -7,3.2 -3,0 -5.5,-1.2 -7.3,-3.7 -1.8,-2.3 -2.7,-5.7 -2.7,-9.9 z m 5.8,0.5 c 0,2.6 0.5,4.7 1.5,6.2 1,1.5 2.4,2.2 4.3,2.2 2.4,0 4.1,-1.1 5.2,-3.2 v -11.1 c -1.1,-2.1 -2.8,-3.1 -5.2,-3.1 -1.9,0 -3.3,0.7 -4.4,2.2 -0.9,1.6 -1.4,3.8 -1.4,6.8 z" />
	<path
   id="path40"
   class="st2"
   d="m 488.8,378.3 c -0.3,-0.5 -0.5,-1.3 -0.7,-2.4 -1.8,1.9 -4.1,2.9 -6.8,2.9 -2.6,0 -4.7,-0.7 -6.4,-2.2 -1.6,-1.5 -2.5,-3.3 -2.5,-5.5 0,-2.8 1,-4.9 3.1,-6.4 2,-1.5 5,-2.2 8.8,-2.2 h 3.6 v -1.7 c 0,-1.3 -0.4,-2.4 -1.1,-3.2 -0.7,-0.8 -1.9,-1.2 -3.4,-1.2 -1.3,0 -2.4,0.3 -3.3,1 -0.9,0.7 -1.3,1.5 -1.3,2.5 H 473 c 0,-1.4 0.5,-2.8 1.4,-4 0.9,-1.2 2.2,-2.2 3.8,-2.9 1.6,-0.7 3.4,-1.1 5.4,-1.1 3,0 5.4,0.8 7.2,2.3 1.8,1.5 2.7,3.7 2.8,6.4 v 11.7 c 0,2.3 0.3,4.2 1,5.6 v 0.4 c 0.1,0 -5.8,0 -5.8,0 z m -6.4,-4.2 c 1.2,0 2.2,-0.3 3.2,-0.8 1,-0.6 1.8,-1.3 2.3,-2.2 v -4.9 h -3.1 c -2.1,0 -3.8,0.4 -4.9,1.1 -1.1,0.7 -1.6,1.8 -1.6,3.2 0,1.1 0.4,2 1.1,2.7 0.8,0.6 1.7,0.9 3,0.9 z" />
	<path
   id="path42"
   class="st2"
   d="m 518.2,346.1 v 6.3 h 4.6 v 4.3 h -4.6 v 14.5 c 0,1 0.2,1.7 0.6,2.1 0.4,0.4 1.1,0.7 2.1,0.7 0.7,0 1.4,-0.1 2,-0.2 v 4.5 c -1.3,0.4 -2.6,0.5 -3.8,0.5 -4.5,0 -6.7,-2.5 -6.7,-7.4 v -14.7 h -4.3 v -4.3 h 4.3 v -6.3 z" />
	<path
   id="path44"
   class="st2"
   d="m 539.8,345.7 c 0,-0.9 0.3,-1.6 0.9,-2.2 0.6,-0.6 1.4,-0.9 2.4,-0.9 1.1,0 1.9,0.3 2.4,0.9 0.6,0.6 0.9,1.3 0.9,2.2 0,0.9 -0.3,1.6 -0.9,2.2 -0.6,0.6 -1.4,0.9 -2.4,0.9 -1,0 -1.9,-0.3 -2.4,-0.9 -0.6,-0.6 -0.9,-1.4 -0.9,-2.2 z m 6.2,32.6 h -5.8 v -25.9 h 5.8 z" />
	<path
   id="path46"
   class="st2"
   d="m 560.9,365.1 c 0,-2.5 0.5,-4.8 1.5,-6.9 1,-2 2.4,-3.6 4.2,-4.7 1.8,-1.1 3.9,-1.6 6.3,-1.6 3.5,0 6.3,1.1 8.5,3.4 2.2,2.2 3.4,5.2 3.5,8.9 v 1.4 c 0,2.6 -0.5,4.8 -1.5,6.8 -1,2 -2.4,3.6 -4.2,4.7 -1.8,1.1 -3.9,1.7 -6.3,1.7 -3.6,0 -6.6,-1.2 -8.8,-3.6 -2.2,-2.4 -3.3,-5.7 -3.3,-9.7 z m 5.9,0.5 c 0,2.7 0.5,4.7 1.7,6.3 1.1,1.5 2.6,2.3 4.6,2.3 2,0 3.5,-0.8 4.6,-2.3 1.1,-1.5 1.6,-3.8 1.6,-6.7 0,-2.6 -0.6,-4.7 -1.7,-6.2 -1.1,-1.5 -2.7,-2.3 -4.6,-2.3 -1.9,0 -3.4,0.7 -4.5,2.3 -1.2,1.4 -1.7,3.6 -1.7,6.6 z" />
	<path
   id="path48"
   class="st2"
   d="m 603.6,352.4 0.2,3 c 1.9,-2.3 4.4,-3.5 7.5,-3.5 5.4,0 8.1,3.1 8.2,9.3 v 17.1 h -5.8 v -16.8 c 0,-1.6 -0.4,-2.9 -1.1,-3.6 -0.7,-0.8 -1.9,-1.2 -3.5,-1.2 -2.3,0 -4.1,1.1 -5.2,3.2 v 18.4 h -5.8 v -25.9 z" />
</g>
</svg>
